<?xml version="1.0" standalone="no"?><!DOCTYPE svg PUBLIC "-//W3C//DTD SVG 1.1//EN" "http://www.w3.org/Graphics/SVG/1.1/DTD/svg11.dtd"><svg t="1614568465569" class="icon" viewBox="0 0 1024 1024" version="1.1" xmlns="http://www.w3.org/2000/svg" p-id="1215" xmlns:xlink="http://www.w3.org/1999/xlink" width="20" height="20" fill='#ffffff'><defs><style type="text/css"></style></defs><path d="M512 0h-0.2-0.1-0.1-0.1-0.1c-6 0-12 0.1-17.9 0.3-3 0.1-6 0.2-9 0.4-31.2 1.7-61.8 6.1-91.3 13.1-17.2 4.1-27.8 21.3-23.7 38.5 3.3 14.8 16.5 24.7 31 24.7 2.5 0 4.9-0.3 7.4-0.9C441.8 68.1 476.8 64 512 64c17.7 0 32-14.3 32-32S529.7 0 512 0zM271.2 64.6c-5.4 0-10.9 1.4-16 4.3-13.4 7.8-26.3 16.1-38.9 25-4.4 3.1-8.7 6.3-13 9.5-15.4 11.6-30.1 24.1-44 37.4-12.8 12.2-13.3 32.4-1.2 45.2 6.3 6.6 14.7 10 23.2 10 7.9 0 15.8-2.9 22-8.8 25.4-24.2 53.6-45.3 83.9-62.9 15.3-8.9 20.5-28.5 11.6-43.7-5.8-10.3-16.5-16-27.6-16zM95.4 241.4c-11.1 0-21.9 5.8-27.8 16.1-9.2 16.1-17.6 32.7-25 49.7 0 0.1-0.1 0.1-0.1 0.2-0.1 0.3-0.2 0.6-0.4 0.8 0 0.1-0.1 0.1-0.1 0.2l-0.3 0.6c-2.2 5-4.2 10-6.2 15.1-5.6 14.2-10.6 28.6-14.9 43.4-4.9 16.9 4.8 34.7 21.7 39.7 3 0.9 6 1.3 9 1.3 13.8 0 26.6-9 30.7-23 9.8-33.5 23.7-65.9 41.1-96.3 8.8-15.3 3.5-34.9-11.8-43.7-5-2.7-10.5-4.1-15.9-4.1zM32 482.5h-0.2C14.2 482.6 0 496.9 0 514.6c0.2 33.3 3.5 65.9 9.8 97.5 0.5 2.5 1 5 1.6 7.6 1 4.7 2.1 9.3 3.2 13.9 3.6 14.6 16.6 24.4 31.1 24.4 2.5 0 5.1-0.3 7.6-0.9 17.2-4.2 27.7-21.5 23.5-38.7-8.2-33.8-12.5-68.8-12.7-104-0.2-17.7-14.5-31.9-32.1-31.9z m65.9 240.4c-5.5 0-11.1 1.4-16.2 4.4-15.2 8.9-20.3 28.5-11.4 43.7 20.4 34.7 44.7 66.7 72.4 95.6 6.3 6.5 14.6 9.8 23 9.8 8 0 16-3 22.2-8.9 12.7-12.2 13.2-32.5 0.9-45.2-24.3-25.3-45.6-53.4-63.3-83.5-6-10.3-16.7-15.9-27.6-15.9z m177.7 174.9c-11.1 0-22 5.8-27.9 16.2-8.7 15.3-3.3 34.8 12 43.6 26.3 14.9 54 27.5 82.9 37.7 9.1 3.2 18.3 6.1 27.6 8.8 3 0.9 5.9 1.3 8.9 1.3 13.9 0 26.7-9.1 30.7-23.2 4.9-17-4.9-34.7-21.9-39.6-33.6-9.7-66-23.3-96.5-40.6-5-2.8-10.4-4.2-15.8-4.2z m352.8 48c-2.6 0-5.2 0.3-7.8 1-33.8 8.4-68.8 12.9-104 13.2-17.7 0.2-31.9 14.7-31.7 32.3 0.2 17.6 14.5 31.7 32 31.7h0.3c40.9-0.4 80.7-5.6 118.8-15.1 17.1-4.3 27.6-21.6 23.3-38.8-3.5-14.6-16.6-24.3-30.9-24.3z m217.8-121.2c-8 0-16.1 3-22.3 9-25.2 24.4-53.2 45.9-83.2 63.7-15.2 9-20.2 28.7-11.1 43.9 6 10.1 16.6 15.6 27.5 15.6 5.6 0 11.2-1.5 16.3-4.5 18.9-11.2 37-23.6 54.2-37.1 2-1.6 4-3.1 6-4.8 12.1-9.8 23.8-20.1 35-31 12.6-12.3 12.9-32.5 0.6-45.2-6.3-6.4-14.7-9.6-23-9.6z m127.8-214c-14 0-26.8 9.2-30.8 23.3-9.5 33.6-23 66.1-40.1 96.7-8.6 15.4-3.1 34.9 12.3 43.6 4.9 2.8 10.3 4.1 15.6 4.1 11.2 0 22.1-5.9 27.9-16.4 0 0 0-0.1 0.1-0.1v-0.1c0-0.1 0.1-0.1 0.1-0.2s0.1-0.1 0.1-0.2v-0.1s0-0.1 0.1-0.1c0 0 0-0.1 0.1-0.1 0 0 0-0.1 0.1-0.1v-0.1s0-0.1 0.1-0.1c0 0 0-0.1 0.1-0.1 0 0 0-0.1 0.1-0.1 0 0 0-0.1 0.1-0.1 0 0 0-0.1 0.1-0.1 16.3-29.2 29.6-60.1 39.8-92 1.8-5.6 3.5-11.3 5.1-17 4.8-17-5.1-34.7-22.1-39.5-3-0.8-5.9-1.2-8.8-1.2z m3.2-249.4c-2.6 0-5.3 0.3-7.9 1-17.1 4.4-27.5 21.8-23.1 38.9 8.6 33.8 13.2 68.7 13.8 103.9 0.3 17.5 14.5 31.5 32 31.5h0.5c17.7-0.3 31.8-14.8 31.5-32.5-0.3-18.2-1.5-36.2-3.6-53.9-0.3-2.4-0.6-4.9-0.9-7.3-2.6-19.6-6.4-38.8-11.2-57.5-3.8-14.5-16.8-24.1-31.1-24.1zM854.8 144.1c-8.1 0-16.2 3-22.4 9.1-12.6 12.4-12.8 32.6-0.5 45.3 24.5 25 46.1 52.9 64.2 82.9 6 10 16.6 15.5 27.4 15.5 5.6 0 11.3-1.5 16.5-4.6 15.1-9.1 20-28.8 10.9-43.9-0.6-1.1-1.3-2.1-2-3.2-19.5-31.8-42.4-61.2-68.1-88.2-1.1-1.1-2.1-2.2-3.2-3.3-6.2-6.4-14.5-9.6-22.8-9.6zM640.2 17.3c-14 0-26.9 9.3-30.8 23.5-4.7 17 5.3 34.7 22.3 39.4 33.7 9.3 66.3 22.6 96.9 39.6 4.9 2.7 10.2 4 15.5 4 11.3 0 22.2-6 28-16.5 8.6-15.5 3-34.9-12.5-43.5-11.9-6.6-24-12.7-36.4-18.3-3.2-1.5-6.5-2.9-9.7-4.3-20.9-9-42.6-16.6-64.8-22.7-2.9-0.8-5.7-1.2-8.5-1.2z" p-id="1216"></path><path d="M512 160c47.5 0 93.6 9.3 137 27.6 41.9 17.7 79.6 43.1 111.9 75.5 32.3 32.3 57.7 70 75.5 111.9 18.3 43.4 27.6 89.4 27.6 137s-9.3 93.6-27.6 137c-17.7 41.9-43.1 79.6-75.5 111.9-32.3 32.3-70 57.7-111.9 75.5-43.4 18.3-89.4 27.6-137 27.6s-93.6-9.3-137-27.6c-41.9-17.7-79.6-43.1-111.9-75.5-32.3-32.3-57.7-70-75.5-111.9-18.3-43.4-27.6-89.4-27.6-137s9.3-93.6 27.6-137c17.7-41.9 43.1-79.6 75.5-111.9s70-57.7 111.9-75.5c43.4-18.3 89.5-27.6 137-27.6m0-64C282.2 96 96 282.2 96 512s186.2 416 416 416 416-186.2 416-416S741.8 96 512 96z" p-id="1217"></path></svg>